<svg width="100px" height="100px" viewBox="0 0 100 100" version="1.1" xmlns="http://www.w3.org/2000/svg" xmlns:xlink="http://www.w3.org/1999/xlink">
                            <g id="Design" stroke="none" stroke-width="1" fill="none" fill-rule="evenodd">
                                <g id="The-technology" transform="translate(-735.000000, -3257.000000)">
                                    <g id="Improve-your-business" transform="translate(93.000000, 2553.000000)">
                                        <g id="consulting" transform="translate(642.000000, 704.000000)">
                                            <g id="icon">
                                                <circle id="Oval-Copy-4" fill="#F8F8F9" cx="50" cy="50" r="50"></circle>
                                                <g id="iconmonstr-chart-4-copy" transform="translate(24.000000, 28.000000)">
                                                    <path d="M9.79166667,37.173913 L1.95833333,37.173913 L1.95833333,29.3478261 L9.79166667,29.3478261 L9.79166667,37.173913 Z M21.5416667,37.173913 L13.7083333,37.173913 L13.7083333,21.5217391 L21.5416667,21.5217391 L21.5416667,37.173913 Z M33.2916667,37.173913 L25.4583333,37.173913 L25.4583333,11.7391304 L33.2916667,11.7391304 L33.2916667,37.173913 Z M45.0416667,37.173913 L37.2083333,37.173913 L37.2083333,0 L45.0416667,0 L45.0416667,37.173913 Z M47,41.0869565 L0,41.0869565 L0,45 L47,45 L47,41.0869565 Z" id="Shape" fill="#2F7BED" fill-rule="nonzero"></path>
                                                    <rect id="Rectangle-2" fill="#AED1FF" x="0" y="41" width="47" height="4"></rect>
                                                </g>
                                            </g>
                                        </g>
                                    </g>
                                </g>
                            </g>
                        </svg>