<svg class=" mt-5" width="100px" height="100px" viewBox="0 0 100 100" version="1.1" xmlns="http://www.w3.org/2000/svg" xmlns:xlink="http://www.w3.org/1999/xlink">
                <g id="Design" stroke="none" stroke-width="1" fill="none" fill-rule="evenodd">
                    <g id="The-technology" transform="translate(-687.000000, -3799.000000)">
                        <g id="Technical-env." transform="translate(93.000000, 3799.000000)">
                            <g id="Group-8" transform="translate(594.000000, 0.000000)">
                                <circle id="Oval" fill="#F8F8F9" cx="50" cy="50" r="50"></circle>
                                <g id="Feature_1" transform="translate(20.000000, 20.000000)" fill-rule="nonzero">
                                    <path d="M24,1 L24,9 L22,9 L22,1 C22,0.44771525 22.4477153,0 23,0 C23.5522847,0 24,0.44771525 24,1 Z M38,1 L38,9 L36,9 L36,1 C36,0.44771525 36.4477153,0 37,0 C37.5522847,0 38,0.44771525 38,1 Z M22,59 L22,51 L24,51 L24,59 C24,59.5522847 23.5522847,60 23,60 C22.4477153,60 22,59.5522847 22,59 Z M36,59 L36,51 L38,51 L38,59 C38,59.5522847 37.5522847,60 37,60 C36.4477153,60 36,59.5522847 36,59 Z M59,24 L51,24 L51,22 L59,22 C59.5522847,22 60,22.4477153 60,23 C60,23.5522847 59.5522847,24 59,24 Z M59,36 C59.5522847,36 60,36.4477153 60,37 C60,37.5522847 59.5522847,38 59,38 L51,38 L51,36 L59,36 Z M1,22 L9,22 L9,24 L1,24 C0.44771525,24 0,23.5522847 0,23 C0,22.4477153 0.44771525,22 1,22 Z M1,36 L9,36 L9,38 L1,38 C0.44771525,38 0,37.5522847 0,37 C0,36.4477153 0.44771525,36 1,36 Z" id="Combined-Shape" fill="#AED1FF"></path>
                                    <path d="M10.943,9 L49.057,9 C50.1300893,9 51,9.86991073 51,10.943 L51,49.057 C51,50.1300893 50.1300893,51 49.057,51 L10.943,51 C9.86991073,51 9,50.1300893 9,49.057 L9,10.943 C9,9.86991073 9.86991073,9 10.943,9 Z" id="Rectangle-path" fill="#0078FF"></path>
                                    <path d="M29.9817028,17.0002626 C23.874225,16.9667189 18.7303462,21.5796334 18.0705004,27.6819603 C17.4106546,33.7842871 21.4485072,39.4000254 27.4205806,40.685804 L27.4205806,32.4925402 L31.2081557,32.4925402 C31.6565594,33.0501522 32.405986,33.2631619 33.0785523,33.0241634 C33.7511185,32.785165 34.200764,32.1460613 34.200764,31.4291077 C34.200764,30.7121541 33.7511185,30.0730505 33.0785523,29.834052 C32.405986,29.5950536 31.6565594,29.8080633 31.2081557,30.3656753 L27.4205806,30.3656753 L27.4205806,25.1935264 L32.3985365,25.1935264 C32.9732861,25.8566555 33.9577097,25.9666498 34.6633448,25.4465842 C35.3689798,24.9265186 35.5604925,23.9498383 35.1039472,23.1995905 C34.7898413,22.7298842 34.2601479,22.4523318 33.6971336,22.4624385 C33.3124324,22.4665781 32.9416992,22.6079076 32.6510415,22.8612257 L32.4947288,23.0424925 L25.2803001,23.0424925 L25.2803001,37.6405201 L25.0879153,37.5438445 C20.8535451,35.0726058 19.0878052,29.8367268 20.9545171,25.2872414 C22.8212291,20.7377561 27.7459373,18.2747077 32.4827042,19.5215225 C37.2194712,20.7683374 40.3106204,25.3413249 39.7187362,30.2263712 C39.126852,35.1114175 35.0340789,38.805215 30.1380155,38.8731351 L30.1380155,41 C36.7322289,40.9566186 42.0429033,35.5489268 41.9997387,28.9215823 C41.9565742,22.2942378 36.5759162,16.9568812 29.9817028,17.0002626 Z M32.4947288,31.9245706 C32.2291009,31.9245706 32.0137669,31.7081547 32.0137669,31.4411922 C32.0137669,31.1742297 32.2291009,30.9578138 32.4947288,30.9578138 C32.7603568,30.9578138 32.9756908,31.1742297 32.9756908,31.4411922 C32.9756908,31.7081547 32.7603568,31.9245706 32.4947288,31.9245706 Z M33.6971336,24.6738946 C33.4315057,24.6738946 33.2161717,24.4574788 33.2161717,24.1905162 C33.2161717,23.9235537 33.4315057,23.7071378 33.6971336,23.7071378 C33.9627616,23.7071378 34.1780956,23.9235537 34.1780956,24.1905162 C34.1652701,24.4479959 33.9536467,24.6500482 33.6971336,24.6497257 L33.6971336,24.6738946 Z" id="Fusemap" fill="#E9F1FF"></path>
                                </g>
                            </g>
                        </g>
                    </g>
                </g>
            </svg>