<svg width="100px" height="100px" viewBox="0 0 100 100" version="1.1" xmlns="http://www.w3.org/2000/svg" xmlns:xlink="http://www.w3.org/1999/xlink">
                                <g id="Design" stroke="none" stroke-width="1" fill="none" fill-rule="evenodd">
                                    <g id="The-technology" transform="translate(-93.000000, -2853.000000)">
                                        <g id="Improve-your-business" transform="translate(93.000000, 2553.000000)">
                                            <g id="math" transform="translate(0.000000, 300.000000)">
                                                <g id="icon">
                                                    <circle id="Oval-Copy-2" fill="#F8F8F9" cx="50" cy="50" r="50"></circle>
                                                    <g id="iconmonstr-cube-18" transform="translate(26.000000, 26.000000)" fill-rule="nonzero">
                                                        <polygon id="Shape" fill="#2F7BED" points="34.5 19.2260833 34.5 6.91533333 22.931 0 11.5 6.84058333 11.5 19.297 0 25.4763333 0 39.307 11.7606667 46 23 39.49675 34.2393333 46 46 39.307 46 25.5510833"></polygon>
                                                        <polygon id="Path" fill="#AED1FF" points="32 18.5468979 24 23 24 13.7426284 32 9"></polygon>
                                                        <polygon id="Path" fill="#2F7BED" points="22.9052582 3 31 8.08521058 22.9128375 13 15 7.9970617"></polygon>
                                                        <polygon id="Path" fill="#2F7BED" points="3 25.9763965 12.0100943 21 20 25.7541306 11.1973378 31"></polygon>
                                                        <polygon id="Path" fill="#AED1FF" points="13 33.1779086 22 28 22 37.7068988 13 43 13 33.1779086"></polygon>
                                                        <polygon id="Path" fill="#2F7BED" points="25 25.6835195 33.0078749 21 42 26.0832843 33.7658607 31 25 25.6835195"></polygon>
                                                        <polygon id="Path" fill="#AED1FF" points="43 38.0241704 35 43 35 32.9738699 43 28"></polygon>
                                                    </g>
                                                </g>
                                            </g>
                                        </g>
                                    </g>
                                </g>
                            </svg>