<svg class="line-4" width="667px" height="616px" viewBox="0 0 667 616" version="1.1" xmlns="http://www.w3.org/2000/svg" xmlns:xlink="http://www.w3.org/1999/xlink">
            <g id="Design" stroke="none" stroke-width="1" fill="none" fill-rule="evenodd">
                <g id="Home_01" transform="translate(-437.000000, -4403.000000)" stroke="#E6EFFF" stroke-width="2">
                    <g id="Advantages" transform="translate(96.000000, 2534.000000)">
                        <g id="3" transform="translate(342.000000, 1869.000000)">
                            <polyline id="Path-2" transform="translate(332.000000, 308.000000) scale(1, -1) rotate(-90.000000) translate(-332.000000, -308.000000) " points="24 -19 153 -19 232 118 231.537457 500 346 500 424 635 640 635"></polyline>
                            <polyline id="Path-4" points="5 129 5 203 51 229 51 330"></polyline>
                            <polyline id="Path-8" points="141 207 255 142 389.003731 142"></polyline>
                            <path d="M388.985288,148.213057 C392.290871,148.213057 394.970576,145.479071 394.970576,142.106529 C394.970576,138.733986 392.290871,136 388.985288,136 C385.679705,136 383,138.733986 383,142.106529 C383,145.479071 385.679705,148.213057 388.985288,148.213057 Z" id="Oval" fill="#FFFFFF" transform="translate(388.985288, 142.106529) scale(-1, -1) rotate(-360.000000) translate(-388.985288, -142.106529) "></path>
                            <path d="M5.98528806,135.213057 C9.29087138,135.213057 11.9705761,132.479071 11.9705761,129.106529 C11.9705761,125.733986 9.29087138,123 5.98528806,123 C2.67970474,123 -8.38440428e-13,125.733986 -8.38440428e-13,129.106529 C-8.38440428e-13,132.479071 2.67970474,135.213057 5.98528806,135.213057 Z" id="Oval" fill="#FFFFFF" transform="translate(5.985288, 129.106529) scale(-1, -1) rotate(-360.000000) translate(-5.985288, -129.106529) "></path>
                            <g id="Group-2" transform="translate(52.000000, 282.000000)">
                                <polyline id="Path-6" points="0 0 46 27 46 139.425419"></polyline>
                                <path d="M46.395944,150.213057 C52.1374653,150.213057 56.791888,145.464352 56.791888,139.606529 C56.791888,133.748705 52.1374653,129 46.395944,129 C40.6544227,129 36,133.748705 36,139.606529 C36,145.464352 40.6544227,150.213057 46.395944,150.213057 Z" id="Oval" fill="#FFFFFF" transform="translate(46.395944, 139.606529) scale(-1, -1) rotate(-360.000000) translate(-46.395944, -139.606529) "></path>
                            </g>
                            <path d="M50.9852881,235.213057 C54.2908714,235.213057 56.9705761,232.479071 56.9705761,229.106529 C56.9705761,225.733986 54.2908714,223 50.9852881,223 C47.6797047,223 45,225.733986 45,229.106529 C45,232.479071 47.6797047,235.213057 50.9852881,235.213057 Z" id="Oval" fill="#FFFFFF" transform="translate(50.985288, 229.106529) scale(-1, -1) rotate(-360.000000) translate(-50.985288, -229.106529) "></path>
                            <path d="M50.9852881,335.213057 C54.2908714,335.213057 56.9705761,332.479071 56.9705761,329.106529 C56.9705761,325.733986 54.2908714,323 50.9852881,323 C47.6797047,323 45,325.733986 45,329.106529 C45,332.479071 47.6797047,335.213057 50.9852881,335.213057 Z" id="Oval" fill="#FFFFFF" transform="translate(50.985288, 329.106529) scale(-1, -1) rotate(-360.000000) translate(-50.985288, -329.106529) "></path>
                            <path d="M659,405.79066 C662.313708,405.79066 665,403.104368 665,399.79066 C665,396.476951 662.313708,393.79066 659,393.79066 C655.686292,393.79066 653,396.476951 653,399.79066 C653,403.104368 655.686292,405.79066 659,405.79066 Z" id="Oval" fill="#FFFFFF" transform="translate(659.000000, 399.790660) scale(-1, -1) rotate(-360.000000) translate(-659.000000, -399.790660) "></path>
                            <path d="M523.925725,216.213057 C528.855267,216.213057 532.851451,212.135925 532.851451,207.106529 C532.851451,202.077132 528.855267,198 523.925725,198 C518.996183,198 515,202.077132 515,207.106529 C515,212.135925 518.996183,216.213057 523.925725,216.213057 Z" id="Oval" fill="#FFFFFF" transform="translate(523.925725, 207.106529) scale(-1, -1) rotate(-360.000000) translate(-523.925725, -207.106529) "></path>
                            <path d="M142,218 C147.522847,218 152,213.522847 152,208 C152,202.477153 147.522847,198 142,198 C136.477153,198 132,202.477153 132,208 C132,213.522847 136.477153,218 142,218 Z" id="Oval" fill="#FFFFFF" transform="translate(142.000000, 208.000000) scale(-1, -1) rotate(-360.000000) translate(-142.000000, -208.000000) "></path>
                            <g id="Group-2" transform="translate(473.000000, 322.000000)">
                                <polyline id="Path-6" points="52 0 6 28 6 130"></polyline>
                                <path d="M6,136 C9.3137085,136 12,133.313708 12,130 C12,126.686292 9.3137085,124 6,124 C2.6862915,124 1.687539e-14,126.686292 1.687539e-14,130 C1.687539e-14,133.313708 2.6862915,136 6,136 Z" id="Oval" fill="#FFFFFF" transform="translate(6.000000, 130.000000) scale(-1, -1) rotate(-360.000000) translate(-6.000000, -130.000000) "></path>
                            </g>
                        </g>
                    </g>
                </g>
            </g>
        </svg>