<svg class="line-2" width="667px" height="595px" viewBox="0 0 667 595" version="1.1" xmlns="http://www.w3.org/2000/svg" xmlns:xlink="http://www.w3.org/1999/xlink">
            <defs>
                <linearGradient x1="9.28768382%" y1="0%" x2="81.981355%" y2="100%" id="linearGradient-1">
                    <stop stop-color="#5EE87D" offset="0%"></stop>
                    <stop stop-color="#3284FF" offset="100%"></stop>
                </linearGradient>
            </defs>
            <g id="Design" stroke="none" stroke-width="1" fill="none" fill-rule="evenodd" opacity="0.400000006">
                <g id="Home_01" transform="translate(-433.000000, -3796.000000)" stroke-width="2">
                    <g id="Advantages" transform="translate(96.000000, 2534.000000)">
                        <g id="2" transform="translate(670.500000, 1559.500000) scale(-1, 1) translate(-670.500000, -1559.500000) translate(338.000000, 1262.000000)">
                            <g id="5" transform="translate(543.671875, 211.000000) rotate(-90.000000) translate(-543.671875, -211.000000) translate(527.671875, 138.500000)" stroke="#E6EFFF">
                                <path d="M22,142.828125 L26,137.828125 C26,137.828125 26,122.828125 26,92.828125 L0,47.828125 L0,0.828125" id="Path-3"></path>
                                <path d="M26,144.828125 C29.3137085,144.828125 32,142.141833 32,138.828125 C32,135.514417 29.3137085,132.828125 26,132.828125 C22.6862915,132.828125 20,135.514417 20,138.828125 C20,142.141833 22.6862915,144.828125 26,144.828125 Z" id="Oval" fill="#FFFFFF" transform="translate(26.000000, 138.828125) scale(-1, -1) rotate(-360.000000) translate(-26.000000, -138.828125) "></path>
                            </g>
                            <g id="3" transform="translate(240.500000, 286.000000) rotate(-90.000000) translate(-240.500000, -286.000000) translate(179.500000, 136.000000)" stroke="#E6EFFF">
                                <polyline id="Path-3" points="6 262.5 6 198.5 66 92.5 122 0"></polyline>
                                <path d="M66,92.5 L66,293.503676" id="Path-7"></path>
                                <path d="M6,270.286943 C9.3137085,270.286943 12,267.647514 12,264.391613 C12,261.135712 9.3137085,258.496283 6,258.496283 C2.6862915,258.496283 1.13686838e-13,261.135712 1.13686838e-13,264.391613 C1.13686838e-13,267.647514 2.6862915,270.286943 6,270.286943 Z" id="Oval" fill="#FFFFFF" transform="translate(6.000000, 264.391613) scale(-1, -1) rotate(-360.000000) translate(-6.000000, -264.391613) "></path>
                                <path d="M67,97.3953299 C70.3137085,97.3953299 73,94.7559008 73,91.5 C73,88.2440992 70.3137085,85.6046701 67,85.6046701 C63.6862915,85.6046701 61,88.2440992 61,91.5 C61,94.7559008 63.6862915,97.3953299 67,97.3953299 Z" id="Oval" fill="#FFFFFF" transform="translate(67.000000, 91.500000) scale(-1, -1) rotate(-360.000000) translate(-67.000000, -91.500000) "></path>
                                <path d="M65,299.5 C68.3137085,299.5 71,296.813708 71,293.5 C71,290.186292 68.3137085,287.5 65,287.5 C61.6862915,287.5 59,290.186292 59,293.5 C59,296.813708 61.6862915,299.5 65,299.5 Z" id="Oval" fill="#FFFFFF" transform="translate(65.000000, 293.500000) scale(-1, -1) rotate(-360.000000) translate(-65.000000, -293.500000) "></path>
                            </g>
                            <g transform="translate(535.000000, 260.000000)" stroke="#E6EFFF">
                                <polyline id="Path-3" transform="translate(37.500000, 74.000000) scale(-1, 1) translate(-37.500000, -74.000000) " points="69 148 69 46 6 11 6 0"></polyline>
                                <path d="M6,154.20934 C9.3137085,154.20934 12,151.523049 12,148.20934 C12,144.895632 9.3137085,142.20934 6,142.20934 C2.6862915,142.20934 7.63833441e-14,144.895632 7.63833441e-14,148.20934 C7.63833441e-14,151.523049 2.6862915,154.20934 6,154.20934 Z" id="Oval" fill="#FFFFFF" transform="translate(6.000000, 148.000000) rotate(-360.000000) translate(-6.000000, -148.000000) "></path>
                            </g>
                            <g id="1" transform="translate(166.952442, 31.500000) scale(-1, 1) rotate(-270.000000) translate(-166.952442, -31.500000) translate(155.452442, -37.000000)" stroke="#E6EFFF">
                                <path d="M13.9251073,136.334501 C18.9370321,136.334501 23,132.3522 23,127.439783 C23,122.527366 18.9370321,118.545065 13.9251073,118.545065 C8.91318243,118.545065 4.85021457,122.527366 4.85021457,127.439783 C4.85021457,132.3522 8.91318243,136.334501 13.9251073,136.334501 Z" id="Oval" fill="#FFFFFF" transform="translate(13.925107, 127.439783) scale(-1, -1) rotate(-360.000000) translate(-13.925107, -127.439783) "></path>
                                <polyline id="Path-3" points="14 119 14 83 -7.10542736e-15 60 -1.42108547e-14 0.547557563"></polyline>
                            </g>
                            <g transform="translate(41.000000, 217.000000)" stroke="#E6EFFF">
                                <polyline id="Path-3" transform="translate(28.500000, 98.500000) scale(-1, 1) translate(-28.500000, -98.500000) " points="51 197 51 151 6 124 6 0"></polyline>
                                <path d="M6.0147481,207.79066 C9.33660175,207.79066 12.0294962,205.151231 12.0294962,201.89533 C12.0294962,198.639429 9.33660175,196 6.0147481,196 C2.69289445,196 9.84101689e-13,198.639429 9.84101689e-13,201.89533 C9.84101689e-13,205.151231 2.69289445,207.79066 6.0147481,207.79066 Z" id="Oval" fill="#FFFFFF" transform="translate(6.000000, 202.000000) scale(-1, -1) rotate(-360.000000) translate(-6.000000, -202.000000) "></path>
                            </g>
                            <g id="key-path">
                                <polyline id="Path-2" stroke="url(#linearGradient-1)" transform="translate(328.000000, 297.500000) scale(1, -1) rotate(-90.000000) translate(-328.000000, -297.500000) " points="30.5 -30.5 167.642578 -30.5 220.5 61.5 257.5 61.5 257.5 442.5 296.5 510.5 296.5 578.5 412.5 578.5 439.5 625.5 625.5 625.5"></polyline>
                                <path d="M610,278 C616.403559,278 622,272.403559 622,265 C622,258.596441 616.403559,253 610,253 C602.596441,253 597,258.596441 597,265 C597,272.403559 602.596441,278 610,278 Z" id="Oval" stroke="#3D9CE1" fill="#FFFFFF" transform="translate(609.500000, 265.500000) scale(-1, -1) rotate(-360.000000) translate(-609.500000, -265.500000) "></path>
                                <path d="M655,418 C660.522847,418 665,413.522847 665,408 C665,402.477153 660.522847,398 655,398 C649.477153,398 645,402.477153 645,408 C645,413.522847 649.477153,418 655,418 Z" id="Oval" stroke="#3284FF" fill="#FFFFFF" transform="translate(655.000000, 408.000000) scale(-1, -1) rotate(-360.000000) translate(-655.000000, -408.000000) "></path>
                                <path d="M91.4024359,239.400729 C98.3059953,239.400729 103.902436,233.804288 103.902436,226.900729 C103.902436,219.997169 98.3059953,214.400729 91.4024359,214.400729 C84.4988765,214.400729 78.9024359,219.997169 78.9024359,226.900729 C78.9024359,233.804288 84.4988765,239.400729 91.4024359,239.400729 Z" id="Oval" stroke="#58DA8F" fill="#FFFFFF" transform="translate(91.500000, 226.500000) scale(1, -1) rotate(-360.000000) translate(-91.500000, -226.500000) "></path>
                            </g>
                        </g>
                    </g>
                </g>
            </g>
        </svg>