<svg class="line-5" width="784px" height="489px" viewBox="0 0 784 489" version="1.1" xmlns="http://www.w3.org/2000/svg" xmlns:xlink="http://www.w3.org/1999/xlink">
            <g id="Design" stroke="none" stroke-width="1" fill="none" fill-rule="evenodd">
                <g id="Home_01" transform="translate(-324.000000, -5307.000000)" stroke="#E6EFFF" stroke-width="2">
                    <g id="Advantages" transform="translate(96.000000, 2534.000000)">
                        <g id="4" transform="translate(229.000000, 2773.000000)">
                            <polyline id="Path-9" points="772 0 772 85.1354378 639 163 277.99446 163 143 242 143 488.090059"></polyline>
                            <polyline id="Path-11" points="143 240 277 240 346 279 346 319.447497"></polyline>
                            <polyline id="Path-10" points="278 163 98.9553128 163 9 212 9 308"></polyline>
                            <polyline id="Path-12" points="278 241 458.002778 241 458.002778 269 525 306 525 383.02597"></polyline>
                            <circle id="Oval-6" fill="#FFFFFF" cx="770" cy="86" r="12"></circle>
                            <circle id="Oval-6" fill="#FFFFFF" cx="278" cy="163" r="9"></circle>
                            <circle id="Oval-6" fill="#FFFFFF" cx="9" cy="308" r="9"></circle>
                            <circle id="Oval-6" fill="#FFFFFF" cx="142.5" cy="240.5" r="7.5"></circle>
                            <circle id="Oval-6" fill="#FFFFFF" cx="279.5" cy="240.5" r="7.5"></circle>
                            <circle id="Oval-6" fill="#FFFFFF" cx="345.5" cy="315.5" r="7.5"></circle>
                            <path d="M526,395 C532.627417,395 538,389.627417 538,383 C538,376.372583 532.627417,371 526,371 C519.372583,371 514,376.372583 514,383 C514,389.627417 519.372583,395 526,395 Z" id="Oval-6" fill="#FFFFFF"></path>
                            <circle id="Oval-6" fill="#FFFFFF" cx="458.5" cy="241.5" r="7.5"></circle>
                        </g>
                    </g>
                </g>
            </g>
        </svg>