<svg width="44px" height="44px" viewBox="0 0 44 44" version="1.1" xmlns="http://www.w3.org/2000/svg" xmlns:xlink="http://www.w3.org/1999/xlink">
                                            <g id="Design" stroke="none" stroke-width="1" fill="none" fill-rule="evenodd">
                                                <g id="Home_01" transform="translate(-424.000000, -1742.000000)" fill-rule="nonzero">
                                                    <g id="Solutions" transform="translate(96.000000, 1473.000000)">
                                                        <g id="AI-Solutions" transform="translate(0.000000, 237.000000)">
                                                            <g id="Feature_2" transform="translate(328.000000, 32.000000)">
                                                                <rect id="Rectangle-path" fill="#AED1FF" x="9" y="9" width="35" height="35" rx="2"></rect>
                                                                <rect id="Rectangle-path" fill="#0078FF" x="0" y="0" width="35" height="35" rx="2"></rect>
                                                                <path d="M25.7928932,9.79289322 C26.1834175,9.40236893 26.8165825,9.40236893 27.2071068,9.79289322 C27.5976311,10.1834175 27.5976311,10.8165825 27.2071068,11.2071068 L14.7071068,23.7071068 C14.3165825,24.0976311 13.6834175,24.0976311 13.2928932,23.7071068 L8.79289322,19.2071068 C8.40236893,18.8165825 8.40236893,18.1834175 8.79289322,17.7928932 C9.18341751,17.4023689 9.81658249,17.4023689 10.2071068,17.7928932 L14,21.5857864 L25.7928932,9.79289322 Z" id="Shape" fill="#AED1FF"></path>
                                                            </g>
                                                        </g>
                                                    </g>
                                                </g>
                                            </g>
                                        </svg>