<svg width="47px" height="47px" viewBox="0 0 47 47" version="1.1" xmlns="http://www.w3.org/2000/svg" xmlns:xlink="http://www.w3.org/1999/xlink">
                                            <g id="Design" stroke="none" stroke-width="1" fill="none" fill-rule="evenodd">
                                                <g id="Home_01" transform="translate(-743.000000, -2098.000000)">
                                                    <g id="Solutions" transform="translate(96.000000, 1473.000000)">
                                                        <g id="AI-Solutions" transform="translate(0.000000, 237.000000)">
                                                            <g id="Feature_7" transform="translate(647.000000, 388.000000)">
                                                                <path d="M40,11 L19,11 C15.1340068,11 12,14.1340068 12,18 L12,33 C12,36.8659932 15.1340068,40 19,40 L30,40 L40,47 L40,40 C43.8659932,40 47,36.8659932 47,33 L47,18 C47,14.1340068 43.8659932,11 40,11 Z" id="Shape" fill="#AED1FF"></path>
                                                                <path d="M29,0 L6,0 C2.6862915,0 0,2.6862915 0,6 L0,23 C0,26.3137085 2.6862915,29 6,29 L6,36 L16,29 L29,29 C32.3137085,29 35,26.3137085 35,23 L35,6 C35,2.6862915 32.3137085,0 29,0 Z" id="Shape" fill="#0078FF"></path>
                                                            </g>
                                                        </g>
                                                    </g>
                                                </g>
                                            </g>
                                        </svg>