<svg width="46px" height="50px" viewBox="0 0 46 50" version="1.1" xmlns="http://www.w3.org/2000/svg" xmlns:xlink="http://www.w3.org/1999/xlink">
                                            <g id="Design" stroke="none" stroke-width="1" fill="none" fill-rule="evenodd">
                                                <g id="Home_01" transform="translate(-743.000000, -1739.000000)" fill-rule="nonzero">
                                                    <g id="Solutions" transform="translate(96.000000, 1473.000000)">
                                                        <g id="AI-Solutions" transform="translate(0.000000, 237.000000)">
                                                            <g id="Feature_3" transform="translate(647.000000, 29.000000)">
                                                                <circle id="Oval" fill="#0078FF" cx="23" cy="23" r="23"></circle>
                                                                <path d="M4,48 L42,48 C42.5522847,48 43,48.4477153 43,49 C43,49.5522847 42.5522847,50 42,50 L4,50 C3.44771525,50 3,49.5522847 3,49 C3,48.4477153 3.44771525,48 4,48 Z M26,24 C26,25.6568542 24.6568542,27 23,27 C21.3431458,27 20,25.6568542 20,24 C20,22.343 23,16 23,16 C23,16 26,22.343 26,24 Z" id="Combined-Shape" fill="#AED1FF"></path>
                                                            </g>
                                                        </g>
                                                    </g>
                                                </g>
                                            </g>
                                        </svg>