<svg width="46px" height="46px" viewBox="0 0 46 46" version="1.1" xmlns="http://www.w3.org/2000/svg" xmlns:xlink="http://www.w3.org/1999/xlink">
                                            <g id="Design" stroke="none" stroke-width="1" fill="none" fill-rule="evenodd">
                                                <g id="Home_01" transform="translate(-424.000000, -2098.000000)" fill-rule="nonzero">
                                                    <g id="Solutions" transform="translate(96.000000, 1473.000000)">
                                                        <g id="AI-Solutions" transform="translate(0.000000, 237.000000)">
                                                            <g id="Feature_6" transform="translate(328.000000, 388.000000)">
                                                                <path d="M1.647,11 L9.24,11 C23.4668552,11 35,22.5331448 35,36.76 L35,44.353 C35,45.262613 34.262613,46 33.353,46 L1.647,46 C0.737387017,46 3.55271368e-15,45.262613 3.55271368e-15,44.353 L3.55271368e-15,12.647 C3.55271368e-15,11.737387 0.737387017,11 1.647,11 Z" id="Shape" fill="#AED1FF" transform="translate(17.500000, 28.500000) rotate(-180.000000) translate(-17.500000, -28.500000) "></path>
                                                                <path d="M12.647,-3.55271368e-15 L21.166,-3.55271368e-15 C34.8814395,1.77635684e-15 46,11.1185605 46,24.834 L46,33.353 C46,34.262613 45.262613,35 44.353,35 L33.347,35 C21.0050927,35 11,24.9949073 11,12.653 L11,1.647 C11,0.737387017 11.737387,-3.55271368e-15 12.647,-3.55271368e-15 Z" id="Shape" fill="#0078FF" transform="translate(28.500000, 17.500000) rotate(-180.000000) translate(-28.500000, -17.500000) "></path>
                                                                <path d="M45,35 C44.7348052,34.9999434 44.4804927,34.8945494 44.293,34.707 L31.793,22.207 C31.4140278,21.8146211 31.4194476,21.1909152 31.8051814,20.8051814 C32.1909152,20.4194476 32.8146211,20.4140278 33.207,20.793 L45.707,33.293 C45.9929079,33.5789943 46.0784219,34.0090366 45.923678,34.3826546 C45.7689341,34.7562725 45.4043959,34.9999137 45,35 Z" id="Shape" fill="#AED1FF"></path>
                                                            </g>
                                                        </g>
                                                    </g>
                                                </g>
                                            </g>
                                        </svg>