<svg width="40px" height="54px" viewBox="0 0 40 54" version="1.1" xmlns="http://www.w3.org/2000/svg" xmlns:xlink="http://www.w3.org/1999/xlink">
                                            <g id="Design" stroke="none" stroke-width="1" fill="none" fill-rule="evenodd">
                                                <g id="Home_01" transform="translate(-108.000000, -2094.000000)" fill-rule="nonzero">
                                                    <g id="Solutions" transform="translate(96.000000, 1473.000000)">
                                                        <g id="AI-Solutions" transform="translate(0.000000, 237.000000)">
                                                            <g id="Feature_5" transform="translate(12.000000, 384.000000)">
                                                                <circle id="Oval" fill="#0078FF" cx="20" cy="20" r="20"></circle>
                                                                <path d="M23.032,54 L16.968,54 C16.4157153,54 15.968,53.5522847 15.968,53 C15.968,52.4477153 16.4157153,52 16.968,52 L23.032,52 C23.5842847,52 24.032,52.4477153 24.032,53 C24.032,53.5522847 23.5842847,54 23.032,54 Z M21,39 L27,39 L27,48 C27,49.1045695 26.1045695,50 25,50 L15,50 C13.8954305,50 13,49.1045695 13,48 L13,39 L19,39 L19,26 C19.0013771,25.8222651 19.0150767,25.6448396 19.041,25.469 L16.251,22.832 C15.9850775,22.5880477 15.8712204,22.219744 15.9530761,21.8682797 C16.0349319,21.5168154 16.2998014,21.2367169 16.6461458,21.135361 C16.9924903,21.0340051 17.3665777,21.1271163 17.625,21.379 L19.969,23.595 L22.313,21.379 C22.7156282,21.0096363 23.3401829,21.0318174 23.7155939,21.4288131 C24.0910049,21.8258089 24.0782724,22.4506276 23.687,22.832 L20.952,25.417 C20.9828857,25.6098199 20.9989328,25.8047251 21,26 L21,39 Z" id="Combined-Shape" fill="#AED1FF"></path>
                                                            </g>
                                                        </g>
                                                    </g>
                                                </g>
                                            </g>
                                        </svg>