<svg width="52px" height="52px" viewBox="0 0 52 52" version="1.1" xmlns="http://www.w3.org/2000/svg" xmlns:xlink="http://www.w3.org/1999/xlink">
                                            <g id="Design" stroke="none" stroke-width="1" fill="none" fill-rule="evenodd">
                                                <g id="Home_01" transform="translate(-109.000000, -1738.000000)" fill-rule="nonzero">
                                                    <g id="Solutions" transform="translate(96.000000, 1473.000000)">
                                                        <g id="AI-Solutions" transform="translate(0.000000, 237.000000)">
                                                            <g id="Feature_1" transform="translate(13.000000, 28.000000)">
                                                                <path d="M20,1 L20,9 L18,9 L18,1 C18,0.44771525 18.4477153,0 19,0 C19.5522847,0 20,0.44771525 20,1 Z M34,1 L34,9 L32,9 L32,1 C32,0.44771525 32.4477153,0 33,0 C33.5522847,0 34,0.44771525 34,1 Z M18,51 L18,43 L20,43 L20,51 C20,51.5522847 19.5522847,52 19,52 C18.4477153,52 18,51.5522847 18,51 Z M32,51 L32,43 L34,43 L34,51 C34,51.5522847 33.5522847,52 33,52 C32.4477153,52 32,51.5522847 32,51 Z M51,20 L43,20 L43,18 L51,18 C51.5522847,18 52,18.4477153 52,19 C52,19.5522847 51.5522847,20 51,20 Z M51,32 C51.5522847,32 52,32.4477153 52,33 C52,33.5522847 51.5522847,34 51,34 L43,34 L43,32 L51,32 Z M1,18 L9,18 L9,20 L1,20 C0.44771525,20 0,19.5522847 0,19 C0,18.4477153 0.44771525,18 1,18 Z M1,32 L9,32 L9,34 L1,34 C0.44771525,34 0,33.5522847 0,33 C0,32.4477153 0.44771525,32 1,32 Z" id="Combined-Shape" fill="#AED1FF"></path>
                                                                <rect id="Rectangle-path" fill="#0078FF" x="9" y="9" width="34" height="34" rx="1.943"></rect>
                                                                <rect id="Rectangle-path" fill="#AED1FF" x="20" y="20" width="12" height="12" rx="0.857"></rect>
                                                            </g>
                                                        </g>
                                                    </g>
                                                </g>
                                            </g>
                                        </svg>