<svg width="39px" height="58px" viewBox="0 0 39 58" version="1.1" xmlns="http://www.w3.org/2000/svg" xmlns:xlink="http://www.w3.org/1999/xlink">
                                            <g id="Design" stroke="none" stroke-width="1" fill="none" fill-rule="evenodd">
                                                <g id="Home_01" transform="translate(-1062.000000, -1735.000000)" fill-rule="nonzero">
                                                    <g id="Solutions" transform="translate(96.000000, 1473.000000)">
                                                        <g id="AI-Solutions" transform="translate(0.000000, 237.000000)">
                                                            <g id="Feature_4" transform="translate(966.000000, 25.000000)">
                                                                <circle id="Oval" fill="#0078FF" cx="16" cy="42" r="16"></circle>
                                                                <path d="M15.762,4.4408921e-16 L16.238,4.4408921e-16 C18.0313939,0 19.7513351,0.712422955 21.0194561,1.98054395 C22.287577,3.24866494 23,4.9686061 23,6.762 L23,43.862 C23,44.5141673 22.7409275,45.1396236 22.2797756,45.6007756 C21.8186236,46.0619275 21.1931673,46.321 20.541,46.321 L11.459,46.321 C10.8063125,46.3210005 10.1804012,46.0615162 9.7191629,45.5997152 C9.25792462,45.1379142 8.99920372,44.511687 9,43.859 L9,6.762 C9,3.02745052 12.0274505,8.8817842e-16 15.762,4.4408921e-16 Z" id="Shape" fill="#0078FF"></path>
                                                                <path d="M28,6 L37,6 L28,6 Z M28,8 C26.8954305,8 26,7.1045695 26,6 C26,4.8954305 26.8954305,4 28,4 L37,4 C38.1045695,4 39,4.8954305 39,6 C39,7.1045695 38.1045695,8 37,8 L28,8 Z M28,12 L33,12 L28,12 Z M28,14 C26.8954305,14 26,13.1045695 26,12 C26,10.8954305 26.8954305,10 28,10 L33,10 C34.1045695,10 35,10.8954305 35,12 C35,13.1045695 34.1045695,14 33,14 L28,14 Z M28,18.022 L33,18.022 L28,18.022 Z M28,20.022 C26.8954305,20.022 26,19.1265695 26,18.022 C26,16.9174305 26.8954305,16.022 28,16.022 L33,16.022 C34.1045695,16.022 35,16.9174305 35,18.022 C35,19.1265695 34.1045695,20.022 33,20.022 L28,20.022 Z M21.4655114,42.6224495 C21.1524816,45.4044962 18.799602,47.5074822 16,47.5074822 C13.200398,47.5074822 10.8475184,45.4044962 10.5344886,42.6224495 C10.2522365,40.1139389 11.7096496,37.7751726 14,36.8834418 L14,30.273 C14,29.1684305 14.8954305,28.273 16,28.273 C17.1045695,28.273 18,29.1684305 18,30.273 L18,36.8834418 C20.2903504,37.7751726 21.7477635,40.1139389 21.4655114,42.6224495 Z" id="Combined-Shape" fill="#AED1FF"></path>
                                                            </g>
                                                        </g>
                                                    </g>
                                                </g>
                                            </g>
                                        </svg>