<?xml version="1.0" encoding="UTF-8"?>
<svg width="22px" height="189px" viewBox="0 0 22 189" version="1.1" xmlns="http://www.w3.org/2000/svg" xmlns:xlink="http://www.w3.org/1999/xlink">
    <!-- Generator: Sketch 48.2 (47327) - http://www.bohemiancoding.com/sketch -->
    <title>Artboard</title>
    <desc>Created with Sketch.</desc>
    <defs></defs>
    <g id="Page-1" stroke="none" stroke-width="1" fill="none" fill-rule="evenodd">
        <g id="Artboard" fill-rule="nonzero">
            <g id="icons/suggestions/3" transform="translate(-1.000000, 162.000000)" fill="#3284FF">
                <path d="M17.6145195,19.4677214 C19.3957494,19.4677214 20.845249,18.0182218 20.845249,16.2365874 C20.845249,14.4549529 19.3957494,13.0054533 17.6145195,13.0054533 L17.2293887,13.0054533 C15.7786754,10.1327498 12.8011937,8.15693176 9.36899872,8.15693176 L8.24516119,8.15693176 L6.25113843,2.91033385 C5.77781593,1.66472702 4.56174119,0.827714831 3.22470625,0.827714831 C2.83391177,0.827714831 2.44999463,0.898510932 2.08306855,1.03767584 C0.417944259,1.67039071 -0.421899774,3.54021687 0.210815095,5.20574572 L4.79840244,17.2778969 C5.28022048,18.546563 6.60471439,19.4677214 7.94700846,19.4677214 L10.569296,19.4677214 L10.569296,24.8296158 L6.980136,24.8296158 C6.53351374,24.8296158 6.1710377,25.1920919 6.1710377,25.6387141 L6.1710377,25.9271577 C6.1710377,26.3737799 6.53351374,26.736256 6.980136,26.736256 L16.9587453,26.736256 C17.4053676,26.736256 17.7678436,26.3737799 17.7678436,25.9271577 L17.7678436,25.6387141 C17.7678436,25.1920919 17.4053676,24.8296158 16.9587453,24.8296158 L13.3695852,24.8296158 L13.3695852,19.4677214 L17.6145195,19.4677214 Z M8.88805382,9.20684583 C11.3889767,9.20684583 13.5929604,10.4933121 14.8798313,12.4371708 L9.60693766,12.4371708 L8.379131,9.20684583 L8.88805382,9.20684583 Z"></path>
            </g>
            <g id="icons/suggestions/2" transform="translate(3.000000, 78.000000)" fill="#5CCA55">
                <path d="M13.798965,9.10114934 C13.732836,8.95915379 13.590415,8.8680195 13.4335298,8.8680195 L8.65370632,8.8680195 L13.3709931,1.41996549 C13.4496484,1.29574302 13.4544699,1.13843237 13.3835194,1.00976663 C13.3125216,0.880675477 13.1769546,0.800791165 13.0301376,0.800791165 L6.57638332,0.800791165 C6.42351595,0.800791165 6.28393111,0.887104037 6.21539132,1.02385274 L0.164981883,13.1246716 C0.102445229,13.2493195 0.109299208,13.3977436 0.182707692,13.5167192 C0.256541594,13.6356949 0.386010902,13.7082998 0.525973889,13.7082998 L4.67371863,13.7082998 L0.154062784,24.4425297 C0.0770146018,24.6260745 0.145601665,24.8390206 0.31539128,24.9431065 C0.380716794,24.9830487 0.453321707,25.0023816 0.52554847,25.0023816 C0.641309819,25.0023816 0.755464028,24.9527494 0.83454477,24.8592044 L13.7421007,9.53148471 C13.8433032,9.41132736 13.8650941,9.24352303 13.798965,9.10114934 Z"></path>
            </g>
            <g id="icons/suggestions/1" transform="translate(0.000000, 1.000000)" fill="#FFA124">
                <path d="M22.0950661,12.511659 C22.0950661,11.8904163 21.5900271,11.3853772 20.9687844,11.3853772 L17.6569796,11.3853772 C14.8814996,11.3853772 12.6334054,13.629002 12.6199973,16.4000127 C12.6155279,17.8436199 11.5920417,19.1263297 10.1618426,19.3051046 C8.44560377,19.5196344 6.97964972,18.1788228 6.97964972,16.5072777 L6.97964972,13.9865518 C9.55400804,13.4636353 11.4937155,11.1887249 11.4937155,8.45793852 L11.4937155,5.59754039 C11.4937155,5.19082753 11.1674514,4.86456336 10.7607385,4.86456336 L9.36182504,4.86456336 L9.36182504,1.32929004 C9.36182504,0.775087902 8.95958156,0.283456972 8.40984879,0.229824507 C7.77966732,0.167253298 7.24781205,0.6633536 7.24781205,1.28459632 L7.24781205,4.86456336 L4.45892386,4.86456336 L4.45892386,1.32929004 C4.45892386,0.775087902 4.05668037,0.283456972 3.50247823,0.229824507 C2.87229677,0.17172267 2.34044149,0.6633536 2.34044149,1.28459632 L2.34044149,4.86456336 L0.937058655,4.86456336 C0.530345795,4.86456336 0.204081633,5.19082753 0.204081633,5.59754039 L0.204081633,8.45793852 C0.204081633,11.1887249 2.14378912,13.4636353 4.71814744,13.9865518 L4.71814744,16.3776659 C4.71814744,19.1263297 6.85003793,21.47275 9.59870176,21.5755456 C12.4859161,21.6828105 14.8725608,19.3676758 14.8725608,16.5028083 L14.8725608,16.4625839 C14.8725608,14.9027731 16.1373931,13.6424101 17.6927346,13.6424101 L20.964315,13.6424101 C21.5900271,13.6379408 22.0950661,13.1329017 22.0950661,12.511659 Z"></path>
            </g>
        </g>
    </g>
</svg>