<svg width="44px" height="44px" viewBox="0 0 44 44" version="1.1" xmlns="http://www.w3.org/2000/svg" xmlns:xlink="http://www.w3.org/1999/xlink">
                                    <g id="Design" stroke="none" stroke-width="1" fill="none" fill-rule="evenodd">
                                        <g id="System-Features" transform="translate(-762.000000, -2616.000000)" fill-rule="nonzero">
                                            <g id="Real-estate" transform="translate(92.000000, 1581.000000)">
                                                <g id="Group-2-Copy-6" transform="translate(642.000000, 1001.000000)">
                                                    <g id="Icons_Master-12" transform="translate(28.000000, 34.000000)">
                                                        <rect id="Rectangle-path" fill="#0078FF" x="0" y="0" width="44" height="44" rx="2.095"></rect>
                                                        <path d="M32.451,33 L11.525,33 C11,33 10.916,32.489 10.574,32.12 C7.142,28.42 7.142,15.577 10.574,11.88 C10.916,11.511 11,11 11.525,11 L32.451,11 C32.976,11 33.058,11.513 33.402,11.88 C36.865,15.58 36.865,27.506 33.402,32.12 C33.1,32.519 32.977,33 32.451,33 Z" id="Shape" fill="#AED1FF"></path>
                                                        <path d="M17,23 C16.4477153,23 16,22.5522847 16,22 L16,16 C16,15.4477153 16.4477153,15 17,15 C17.5522847,15 18,15.4477153 18,16 L18,22 C18,22.5522847 17.5522847,23 17,23 Z" id="Shape" fill="#0078FF"></path>
                                                        <path d="M27,23 C26.4477153,23 26,22.5522847 26,22 L26,16 C26,15.4477153 26.4477153,15 27,15 C27.5522847,15 28,15.4477153 28,16 L28,22 C28,22.5522847 27.5522847,23 27,23 Z" id="Shape" fill="#0078FF"></path>
                                                        <path d="M23,29 L21,29 C20.4477153,29 20,28.5522847 20,28 C20,27.4477153 20.4477153,27 21,27 L23,27 C23.5522847,27 24,27.4477153 24,28 C24,28.5522847 23.5522847,29 23,29 Z" id="Shape" fill="#0078FF"></path>
                                                    </g>
                                                </g>
                                            </g>
                                        </g>
                                    </g>
                                </svg>