<svg width="57px" height="56px" viewBox="0 0 57 56" version="1.1" xmlns="http://www.w3.org/2000/svg" xmlns:xlink="http://www.w3.org/1999/xlink">
                            <g id="Design" stroke="none" stroke-width="1" fill="none" fill-rule="evenodd">
                                <g id="System-Features" transform="translate(-1020.000000, -4447.000000)" fill-rule="nonzero">
                                    <g id="Smart-integration" transform="translate(96.000000, 4047.000000)">
                                        <g id="integration" transform="translate(73.000000, 400.000000)">
                                            <g id="2" transform="translate(644.000000, 0.000000)">
                                                <g id="Icons_Master-13" transform="translate(207.000000, 0.000000)">
                                                    <rect id="Rectangle-path" fill="#0078FF" x="0" y="12" width="44" height="44" rx="2"></rect>
                                                    <path d="M32.451,45 L11.525,45 C11,45 10.916,44.489 10.574,44.12 C7.142,40.42 7.142,27.577 10.574,23.88 C10.916,23.511 11,23 11.525,23 L32.451,23 C32.976,23 33.058,23.513 33.402,23.88 C36.865,27.58 36.865,39.506 33.402,44.12 C33.1,44.519 32.977,45 32.451,45 Z" id="Shape" fill="#AED1FF"></path>
                                                    <path d="M17,35 C16.4477153,35 16,34.5522847 16,34 L16,28 C16,27.4477153 16.4477153,27 17,27 C17.5522847,27 18,27.4477153 18,28 L18,34 C18,34.5522847 17.5522847,35 17,35 Z" id="Shape" fill="#0078FF"></path>
                                                    <path d="M27,35 C26.4477153,35 26,34.5522847 26,34 L26,28 C26,27.4477153 26.4477153,27 27,27 C27.5522847,27 28,27.4477153 28,28 L28,34 C28,34.5522847 27.5522847,35 27,35 Z" id="Shape" fill="#0078FF"></path>
                                                    <path d="M23,41 L21,41 C20.4477153,41 20,40.5522847 20,40 C20,39.4477153 20.4477153,39 21,39 L23,39 C23.5522847,39 24,39.4477153 24,40 C24,40.5522847 23.5522847,41 23,41 Z" id="Shape" fill="#0078FF"></path>
                                                    <path d="M56,10 C55.4477153,10 55,9.55228475 55,9 C54.9955914,5.13583434 51.8641657,2.00440864 48,2 C47.4477153,2 47,1.55228475 47,1 C47,0.44771525 47.4477153,0 48,0 C52.9682782,0.00551112896 56.9944889,4.03172183 57,9 C57,9.55228475 56.5522847,10 56,10 Z" id="Shape" fill="#AED1FF"></path>
                                                    <path d="M52,12 C51.4477153,12 51,11.5522847 51,11 C50.9966939,8.23994685 48.7600532,6.00330612 46,6 C45.4477153,6 45,5.55228475 45,5 C45,4.44771525 45.4477153,4 46,4 C49.8641657,4.00440864 52.9955914,7.13583434 53,11 C53,11.5522847 52.5522847,12 52,12 Z" id="Shape" fill="#AED1FF"></path>
                                                    <path d="M48,14 C47.4477153,14 47,13.5522847 47,13 C47,11.3431458 45.6568542,10 44,10 C43.4477153,10 43,9.55228475 43,9 C43,8.44771525 43.4477153,8 44,8 C46.7600532,8.00330612 48.9966939,10.2399468 49,13 C49,13.5522847 48.5522847,14 48,14 Z" id="Shape" fill="#AED1FF"></path>
                                                </g>
                                            </g>
                                        </g>
                                    </g>
                                </g>
                            </g>
                        </svg>