<svg width="54px" height="56px" viewBox="0 0 54 56" version="1.1" xmlns="http://www.w3.org/2000/svg" xmlns:xlink="http://www.w3.org/1999/xlink">
                                    <g id="Design" stroke="none" stroke-width="1" fill="none" fill-rule="evenodd">
                                        <g id="System-Features" transform="translate(-115.000000, -2610.000000)" fill-rule="nonzero">
                                            <g id="Real-estate" transform="translate(92.000000, 1581.000000)">
                                                <g id="Group-2-Copy-7" transform="translate(0.000000, 1001.000000)">
                                                    <g id="Icons_Master-10" transform="translate(23.000000, 28.000000)">
                                                        <path d="M10,51 C9.64565336,50.9995034 9.31802967,50.8115211 9.13878201,50.5058545 C8.95953435,50.2001879 8.95543267,49.8224872 9.128,49.513 L12.478,43.513 C12.6492539,43.1954804 12.9782545,42.9948157 13.3389463,42.9878897 C13.6996382,42.9809637 14.0360997,43.1688503 14.2194169,43.4795614 C14.4027341,43.7902725 14.4044855,44.1756355 14.224,44.488 L10.874,50.488 C10.697044,50.8045065 10.3626149,51.0004192 10,51 Z" id="Shape" fill="#AED1FF"></path>
                                                        <path d="M44,51 C43.6191744,51.0020788 43.2702259,50.7876694 43.1,50.447 L40.1,44.447 C39.8528526,43.9529813 40.0529813,43.3521475 40.547,43.105 C41.0410187,42.8578526 41.6418526,43.0579813 41.889,43.552 L44.889,49.552 C45.0439417,49.8611923 45.0281245,50.2284953 44.8471762,50.5232232 C44.6662279,50.8179511 44.3458378,50.9982614 44,51 Z" id="Shape" fill="#AED1FF"></path>
                                                        <path d="M27,56 C26.4477153,56 26,55.5522847 26,55 L26,45 C26,44.4477153 26.4477153,44 27,44 C27.5522847,44 28,44.4477153 28,45 L28,55 C28,55.5522847 27.5522847,56 27,56 Z" id="Shape" fill="#AED1FF"></path>
                                                        <path d="M28,8.051 L28,1.5 C28,0.94771525 27.5522847,0.5 27,0.5 C26.4477153,0.5 26,0.94771525 26,1.5 L26,8.051 C18.4819789,8.58937668 12.7395824,14.9831008 13.0089428,22.5155596 C13.2783032,30.0480185 19.4627265,36.01524 27,36.01524 C34.5372735,36.01524 40.7216968,30.0480185 40.9910572,22.5155596 C41.2604176,14.9831008 35.5180211,8.58937668 28,8.051 Z" id="Shape" fill="#AED1FF"></path>
                                                        <path d="M52.742,27.99 L41,22 L13,22 L1.258,27.99 C0.489307744,28.8087357 0.0425168478,29.8777664 0,31 C0,36.523 12.088,41 27,41 C41.912,41 54,36.523 54,31 C53.9574832,29.8777664 53.5106923,28.8087357 52.742,27.99 Z" id="Shape" fill="#0078FF"></path>
                                                    </g>
                                                </g>
                                            </g>
                                        </g>
                                    </g>
                                </svg>