<svg width="50px" height="50px" viewBox="0 0 50 50" version="1.1" xmlns="http://www.w3.org/2000/svg" xmlns:xlink="http://www.w3.org/1999/xlink">
                                    <g id="Design" stroke="none" stroke-width="1" fill="none" fill-rule="evenodd">
                                        <g id="System-Features" transform="translate(-117.000000, -2153.000000)" fill-rule="nonzero">
                                            <g id="Real-estate" transform="translate(92.000000, 1581.000000)">
                                                <g id="Icons_Master-09" transform="translate(24.000000, 571.000000)">
                                                    <rect id="Rectangle-path" fill="#0078FF" transform="translate(26.000107, 25.999941) rotate(45.000000) translate(-26.000107, -25.999941) " x="7.71010678" y="7.70994078" width="36.58" height="36.58" rx="2.09"></rect>
                                                    <path d="M36,23 C34.9691359,22.9936896 34.0081269,23.5202635 33.4586534,24.3925017 C32.90918,25.2647399 32.8491853,26.358915 33.3,27.286 L27.286,33.3 C27.1927531,33.2563762 27.0972895,33.2176567 27,33.184 L27,18.816 C28.3775467,18.3289637 29.2038721,16.9203338 28.9567957,15.4802669 C28.7097193,14.0402001 27.4611089,12.9875729 26,12.9875729 C24.5388911,12.9875729 23.2902807,14.0402001 23.0432043,15.4802669 C22.7961279,16.9203338 23.6224533,18.3289637 25,18.816 L25,33.184 C24.9027105,33.2176567 24.8072469,33.2563762 24.714,33.3 L18.7,27.286 C19.3408023,25.9556414 18.9285523,24.3570708 17.7242934,23.5025288 C16.5200345,22.6479868 14.8750014,22.7867094 13.8308554,23.8308554 C12.7867094,24.8750014 12.6479868,26.5200345 13.5025288,27.7242934 C14.3570708,28.9285523 15.9556414,29.3408023 17.286,28.7 L23.3,34.714 C22.6891754,35.9751951 23.0328362,37.4912474 24.1277893,38.3657744 C25.2227424,39.2403014 26.7772576,39.2403014 27.8722107,38.3657744 C28.9671638,37.4912474 29.3108246,35.9751951 28.7,34.714 L34.714,28.7 C35.8275538,29.2392376 37.157933,29.0395483 38.0641041,28.197151 C38.9702751,27.3547536 39.2663479,26.0424557 38.809662,24.8925787 C38.352976,23.7427017 37.2372148,22.9911288 36,23 Z" id="Shape" fill="#AED1FF"></path>
                                                </g>
                                            </g>
                                        </g>
                                    </g>
                                </svg>