<svg width="53px" height="39px" viewBox="0 0 53 39" version="1.1" xmlns="http://www.w3.org/2000/svg" xmlns:xlink="http://www.w3.org/1999/xlink">
                    <g id="Design" stroke="none" stroke-width="1" fill="none" fill-rule="evenodd">
                        <g id="Resources" transform="translate(-689.000000, -1799.000000)" fill="#2F7BED" fill-rule="nonzero">
                            <g id="For-institutions" transform="translate(95.000000, 1799.000000)">
                                <g id="fusemap" transform="translate(594.000000, 0.000000)">
                                    <g id="Icons_Master-16">
                                        <path d="M51.5774144,36.7061895 L48.1501842,36.7061895 L48.1501842,12.6179542 L51.3711618,12.6179542 C52.0301707,12.6088491 52.5912061,12.135496 52.7117743,11.4868615 C52.8323425,10.838227 52.4789427,10.1945391 51.8673139,9.94874835 L27.2029436,0.159748346 C26.6667816,-0.0532494488 26.0696056,-0.0532494488 25.5334436,0.159748346 L0.867927463,9.94874835 C0.256298659,10.1945391 -0.097101174,10.838227 0.0234670188,11.4868615 C0.144035212,12.135496 0.705070634,12.6088491 1.36407949,12.6179542 L4.60797413,12.6179542 L4.60797413,36.7061895 L1.15897276,36.7061895 C0.526138589,36.7061895 0.0131251298,37.2197453 0.0131251298,37.8532483 C0.0131251298,38.4867514 0.526138589,39.0003072 1.15897276,39.0003072 L51.5762686,39.0003072 C52.2091027,39.0003072 52.7221162,38.4867514 52.7221162,37.8532483 C52.7221165,37.2201929 52.2098011,36.7068226 51.5774144,36.7061895 Z M22.9415362,13.7650131 C22.9415362,13.13151 23.4545497,12.6179542 24.0873839,12.6179542 L28.6707744,12.6179542 C29.3036086,12.6179542 29.816622,13.13151 29.816622,13.7650131 L29.816622,34.4120719 C29.816622,35.045575 29.3036086,35.5591307 28.6707744,35.5591307 L24.0873839,35.5591307 C23.4545497,35.5591307 22.9415362,35.045575 22.9415362,34.4120719 L22.9415362,13.7650131 Z M42.420946,13.7650131 L42.420946,34.4120719 C42.420946,35.045575 41.9079325,35.5591307 41.2750984,35.5591307 L36.6917078,35.5591307 C36.0588737,35.5591307 35.5458602,35.045575 35.5458602,34.4120719 L35.5458602,13.7650131 C35.5458602,13.13151 36.0588737,12.6179542 36.6917078,12.6179542 L41.2750984,12.6179542 C41.9079325,12.6179542 42.420946,13.13151 42.420946,13.7650131 Z M16.0664505,12.6179542 C16.6992846,12.6179542 17.2122981,13.13151 17.2122981,13.7650131 L17.2122981,34.4120719 C17.2122981,35.045575 16.6992846,35.5591307 16.0664505,35.5591307 L11.4830599,35.5591307 C10.8502258,35.5591307 10.3372123,35.045575 10.3372123,34.4120719 L10.3372123,13.7650131 C10.3372123,13.13151 10.8502258,12.6179542 11.4830599,12.6179542 L16.0664505,12.6179542 Z" id="Shape"></path>
                                    </g>
                                </g>
                            </g>
                        </g>
                    </g>
                </svg>