<svg width="46px" height="38px" viewBox="0 0 46 38" version="1.1" xmlns="http://www.w3.org/2000/svg" xmlns:xlink="http://www.w3.org/1999/xlink">
                    <g id="Design" stroke="none" stroke-width="1" fill="none" fill-rule="evenodd">
                        <g id="Resources" transform="translate(-701.000000, -1124.000000)" fill="#2F7BED" fill-rule="nonzero">
                            <g id="For-developers" transform="translate(94.000000, 1124.000000)">
                                <g id="fusemap" transform="translate(607.000000, 0.000000)">
                                    <g id="Icons_Master-15">
                                        <path d="M45.0507273,0 L0.949272727,0 C0.697509947,0 0.456058714,0.100978678 0.278035545,0.280721878 C0.100012375,0.460465078 -1.85710033e-15,0.704249173 0,0.958444444 L0,35.6513889 C1.85710033e-15,36.948491 1.04144672,38 2.32613636,38 L43.6738636,38 C44.9585533,38 46,36.948491 46,35.6513889 L46,0.958444444 C46,0.704249173 45.8999876,0.460465078 45.7219645,0.280721878 C45.5439413,0.100978678 45.3024901,0 45.0507273,0 Z M43.6738636,35.8888889 L2.32613636,35.8888889 C2.26375021,35.8888889 2.20391923,35.8638666 2.15980556,35.8193267 C2.11569189,35.7747869 2.09090909,35.7143778 2.09090909,35.6513889 L2.09090909,6.33333333 L43.9090909,6.33333333 L43.9090909,35.6513889 C43.9090909,35.7143778 43.8843081,35.7747869 43.8401944,35.8193267 C43.7960808,35.8638666 43.7362498,35.8888889 43.6738636,35.8888889 Z" id="Shape"></path>
                                        <path d="M16.6425909,17.5285556 C16.4150555,16.9928545 15.80053,16.7447638 15.2699091,16.9743889 L7.95172727,20.1410556 C7.58767299,20.2993704 7.34360725,20.6519471 7.32146026,21.0515375 C7.29931328,21.451128 7.50289465,21.8289969 7.84718182,22.0273333 L15.1653636,26.2495556 C15.6648362,26.5221023 16.2884548,26.34235 16.5701375,25.8446425 C16.8518202,25.346935 16.6885954,24.7132137 16.2024545,24.4171111 L10.7075455,21.2504444 L16.0958182,18.9187222 C16.3512855,18.8080302 16.5525681,18.5991649 16.655171,18.3382976 C16.7577739,18.0774303 16.753247,17.7860453 16.6425909,17.5285556 Z" id="Shape"></path>
                                        <path d="M38.0482727,20.1410556 L30.7300909,16.9743889 C30.2016,16.7545677 29.5962272,17.0040285 29.3710019,17.5344394 C29.1457765,18.0648504 29.3841997,18.6795644 29.9062727,18.9145 L35.2945455,21.2462222 L29.7996364,24.4128889 C29.465859,24.5950209 29.2560089,24.9454365 29.2513266,25.3284774 C29.2466443,25.7115182 29.4478648,26.0670563 29.7770884,26.2574502 C30.106312,26.4478442 30.5118589,26.4432067 30.8367273,26.2453333 L38.1549091,22.0231111 C38.4991963,21.8247747 38.7027776,21.4469058 38.6806306,21.0473153 C38.6584837,20.6477249 38.4144179,20.2951482 38.0503636,20.1368333 L38.0482727,20.1410556 Z" id="Shape"></path>
                                        <path d="M25.4212727,13.7771111 C24.8736235,13.5926572 24.2815576,13.8913141 24.0987727,14.4442222 L19.9169545,27.1108889 C19.7987402,27.4691469 19.8788051,27.8638668 20.1269895,28.1463616 C20.3751738,28.4288563 20.7537726,28.5562082 21.1201713,28.4804449 C21.48657,28.4046817 21.7851039,28.1373135 21.9033182,27.7790556 L26.0851364,15.1123889 C26.1727273,14.8464415 26.1519689,14.556241 26.0274374,14.3057616 C25.9029059,14.0552822 25.6848259,13.8650894 25.4212727,13.7771111 Z" id="Shape"></path>
                                    </g>
                                </g>
                            </g>
                        </g>
                    </g>
                </svg>